<svg width="132" height="24" viewBox="0 0 132 24" fill="none" xmlns="http://www.w3.org/2000/svg">
<g clip-path="url(#clip0_157_513)">
<path d="M126 0H78C74.6863 0 72 2.68629 72 6V18C72 21.3137 74.6863 24 78 24H126C129.314 24 132 21.3137 132 18V6C132 2.68629 129.314 0 126 0Z" fill="#2A2A2A"/>
<path d="M81.377 7.3142H82.547L85.8749 12.0462L89.1769 7.3142H90.3469V16.9992H89.06V9.7062L85.9139 14.1392H85.81L82.6509 9.6412V16.9992H81.377V7.3142ZM94.409 17.1552C93.7156 17.1552 93.1523 16.9732 92.719 16.6092C92.2856 16.2365 92.069 15.7555 92.069 15.1662C92.069 14.5942 92.2554 14.1175 92.6281 13.7362C93.0094 13.3462 93.5856 13.0862 94.357 12.9562L96.749 12.5662V12.2412C96.749 11.8599 96.6061 11.5522 96.3201 11.3182C96.0341 11.0755 95.6656 10.9542 95.215 10.9542C94.8163 10.9542 94.461 11.0582 94.149 11.2662C93.8456 11.4655 93.6204 11.7342 93.4731 12.0722L92.4201 11.5262C92.6194 11.0409 92.9833 10.6379 93.512 10.3172C94.0406 9.99653 94.6171 9.8362 95.2411 9.8362C95.7697 9.8362 96.2377 9.9402 96.6451 10.1482C97.0611 10.3475 97.3816 10.6292 97.607 10.9932C97.841 11.3572 97.958 11.7732 97.958 12.2412V16.9992H96.775V16.0892C96.5236 16.4185 96.19 16.6785 95.774 16.8692C95.3666 17.0599 94.9117 17.1552 94.409 17.1552ZM93.343 15.1272C93.343 15.4132 93.4556 15.6515 93.681 15.8422C93.915 16.0329 94.2053 16.1282 94.552 16.1282C94.9766 16.1282 95.3537 16.0372 95.6831 15.8552C96.0211 15.6645 96.2811 15.4089 96.4631 15.0882C96.6537 14.7675 96.749 14.4122 96.749 14.0222V13.5802L94.6301 13.9312C93.7721 14.0785 93.343 14.4772 93.343 15.1272ZM99.8326 9.9922H101.016V10.8242C101.38 10.2175 102 9.9142 102.875 9.9142H103.304V11.0582H102.693C102.19 11.0582 101.787 11.2142 101.484 11.5262C101.189 11.8382 101.042 12.2715 101.042 12.8262V16.9992H99.8326V9.9922ZM104.378 7.1582H105.587V13.2812L108.811 9.9922H110.358L107.667 12.8132L110.54 16.9992H109.11L106.783 13.6322L105.587 14.8932V16.9992H104.378V7.1582ZM114.724 17.1552C114.065 17.1552 113.467 16.9949 112.93 16.6742C112.393 16.3535 111.972 15.9159 111.669 15.3612C111.366 14.7979 111.214 14.1695 111.214 13.4762C111.214 12.7829 111.361 12.1589 111.656 11.6042C111.959 11.0495 112.367 10.6162 112.878 10.3042C113.398 9.9922 113.979 9.8362 114.62 9.8362C115.287 9.8362 115.868 9.9922 116.362 10.3042C116.865 10.6162 117.246 11.0322 117.506 11.5522C117.775 12.0635 117.909 12.6139 117.909 13.2032C117.909 13.4025 117.887 13.6192 117.844 13.8532H112.488C112.505 14.2952 112.618 14.6809 112.826 15.0102C113.034 15.3395 113.303 15.5952 113.632 15.7772C113.97 15.9592 114.338 16.0502 114.737 16.0502C115.586 16.0502 116.241 15.6645 116.7 14.8932L117.714 15.4132C117.489 15.9159 117.107 16.3319 116.57 16.6612C116.033 16.9905 115.417 17.1552 114.724 17.1552ZM116.596 12.8132C116.579 12.2672 116.379 11.8165 115.998 11.4612C115.625 11.0972 115.166 10.9152 114.62 10.9152C114.083 10.9152 113.619 11.0885 113.229 11.4352C112.839 11.7732 112.601 12.2325 112.514 12.8132H116.596ZM122.332 17.0772C121.648 17.0772 121.119 16.8865 120.746 16.5052C120.382 16.1152 120.2 15.5605 120.2 14.8412V11.1492H118.926V9.9922H119.186C119.498 9.9922 119.745 9.9012 119.927 9.7192C120.109 9.52853 120.2 9.27287 120.2 8.9522V8.3802H121.409V9.9922H122.982V11.1492H121.409V14.8022C121.409 15.5822 121.799 15.9722 122.579 15.9722C122.744 15.9722 122.904 15.9592 123.06 15.9332V17.0122C122.878 17.0555 122.636 17.0772 122.332 17.0772Z" fill="white"/>
<path d="M52.9088 21.3603C51.1888 21.3603 49.8188 20.9403 48.7988 20.1003C47.7988 19.2603 47.2988 18.1203 47.2988 16.6803C47.2988 15.3003 47.7688 14.1603 48.7088 13.2603C49.6488 12.3603 51.0588 11.7603 52.9388 11.4603L57.7988 10.6803V10.1403C57.7988 9.42031 57.5188 8.83031 56.9588 8.37031C56.4188 7.91031 55.6988 7.68031 54.7988 7.68031C53.9588 7.68031 53.2088 7.91031 52.5488 8.37031C51.9088 8.81031 51.4388 9.40031 51.1388 10.1403L47.9288 8.58031C48.4088 7.30031 49.2888 6.27031 50.5688 5.49031C51.8488 4.71031 53.3088 4.32031 54.9488 4.32031C56.2688 4.32031 57.4388 4.57031 58.4588 5.07031C59.4988 5.55031 60.2988 6.24031 60.8588 7.14031C61.4388 8.02031 61.7288 9.02031 61.7288 10.1403V21.0003H58.0088V19.2603C56.7288 20.6603 55.0288 21.3603 52.9088 21.3603ZM51.3788 16.5303C51.3788 17.0903 51.5888 17.5403 52.0088 17.8803C52.4288 18.2003 52.9688 18.3603 53.6288 18.3603C54.8488 18.3603 55.8488 17.9803 56.6288 17.2203C57.4088 16.4403 57.7988 15.4803 57.7988 14.3403V13.6803L53.6888 14.3703C52.9088 14.5303 52.3288 14.7903 51.9488 15.1503C51.5688 15.4903 51.3788 15.9503 51.3788 16.5303Z" fill="white"/>
<path d="M30.6543 4.67969H34.9443L38.8143 15.3297L42.6843 4.67969H46.9743L40.5543 20.9997H37.0743L30.6543 4.67969Z" fill="white"/>
<path d="M21.4564 21.3603C19.8764 21.3603 18.4264 20.9903 17.1064 20.2503C15.7864 19.5103 14.7364 18.4903 13.9564 17.1903C13.1964 15.8903 12.8164 14.4403 12.8164 12.8403C12.8164 11.2403 13.1964 9.79031 13.9564 8.49031C14.7164 7.19031 15.7564 6.17031 17.0764 5.43031C18.3964 4.69031 19.8564 4.32031 21.4564 4.32031C23.0364 4.32031 24.4764 4.69031 25.7764 5.43031C27.0964 6.17031 28.1364 7.19031 28.8964 8.49031C29.6764 9.79031 30.0664 11.2403 30.0664 12.8403C30.0664 14.4603 29.6764 15.9203 28.8964 17.2203C28.1364 18.5203 27.0964 19.5403 25.7764 20.2803C24.4564 21.0003 23.0164 21.3603 21.4564 21.3603ZM16.8964 12.8403C16.8964 14.2603 17.3164 15.4403 18.1564 16.3803C19.0164 17.3003 20.1164 17.7603 21.4564 17.7603C22.3164 17.7603 23.0864 17.5503 23.7664 17.1303C24.4464 16.7103 24.9764 16.1303 25.3564 15.3903C25.7564 14.6303 25.9564 13.7803 25.9564 12.8403C25.9564 11.9203 25.7564 11.0903 25.3564 10.3503C24.9764 9.59031 24.4464 9.00031 23.7664 8.58031C23.0864 8.14031 22.3164 7.92031 21.4564 7.92031C20.5764 7.92031 19.7864 8.14031 19.0864 8.58031C18.4064 9.00031 17.8664 9.58031 17.4664 10.3203C17.0864 11.0603 16.8964 11.9003 16.8964 12.8403Z" fill="white"/>
<path d="M9.27015 21.181C7.43015 21.181 6.00015 20.681 4.98015 19.681C3.98015 18.661 3.48015 17.231 3.48015 15.391V8.19094H0.660156V4.68094H0.960156C1.76015 4.68094 2.38015 4.47094 2.82015 4.05094C3.26015 3.63094 3.48015 3.02094 3.48015 2.22094V0.960938H7.41015V4.68094H11.1601V8.19094H7.41015V15.181C7.41015 16.881 8.33015 17.731 10.1701 17.731C10.4901 17.731 10.8401 17.701 11.2201 17.641V21.031C10.5801 21.131 9.93015 21.181 9.27015 21.181Z" fill="white"/>
</g>
<defs>
<clipPath id="clip0_157_513">
<rect width="132" height="24" fill="white"/>
</clipPath>
</defs>
</svg>
