<svg width="132" height="24" viewBox="0 0 132 24" fill="none" xmlns="http://www.w3.org/2000/svg">
<rect x="72" width="60" height="24" rx="6" fill="black"/>
<path d="M81.3764 7.315H82.5464L85.8744 12.047L89.1764 7.315H90.3464V17H89.0594V9.707L85.9134 14.14H85.8094L82.6504 9.642V17H81.3764V7.315ZM94.4085 17.156C93.7151 17.156 93.1518 16.974 92.7185 16.61C92.2851 16.2373 92.0685 15.7563 92.0685 15.167C92.0685 14.595 92.2548 14.1183 92.6275 13.737C93.0088 13.347 93.5851 13.087 94.3565 12.957L96.7485 12.567V12.242C96.7485 11.8607 96.6055 11.553 96.3195 11.319C96.0335 11.0763 95.6651 10.955 95.2145 10.955C94.8158 10.955 94.4605 11.059 94.1485 11.267C93.8451 11.4663 93.6198 11.735 93.4725 12.073L92.4195 11.527C92.6188 11.0417 92.9828 10.6387 93.5115 10.318C94.0401 9.99733 94.6165 9.837 95.2405 9.837C95.7691 9.837 96.2371 9.941 96.6445 10.149C97.0605 10.3483 97.3811 10.63 97.6065 10.994C97.8405 11.358 97.9575 11.774 97.9575 12.242V17H96.7745V16.09C96.5231 16.4193 96.1895 16.6793 95.7735 16.87C95.3661 17.0607 94.9111 17.156 94.4085 17.156ZM93.3425 15.128C93.3425 15.414 93.4551 15.6523 93.6805 15.843C93.9145 16.0337 94.2048 16.129 94.5515 16.129C94.9761 16.129 95.3531 16.038 95.6825 15.856C96.0205 15.6653 96.2805 15.4097 96.4625 15.089C96.6531 14.7683 96.7485 14.413 96.7485 14.023V13.581L94.6295 13.932C93.7715 14.0793 93.3425 14.478 93.3425 15.128ZM99.832 9.993H101.015V10.825C101.379 10.2183 101.999 9.915 102.874 9.915H103.303V11.059H102.692C102.189 11.059 101.786 11.215 101.483 11.527C101.188 11.839 101.041 12.2723 101.041 12.827V17H99.832V9.993ZM104.377 7.159H105.586V13.282L108.81 9.993H110.357L107.666 12.814L110.539 17H109.109L106.782 13.633L105.586 14.894V17H104.377V7.159ZM114.723 17.156C114.064 17.156 113.466 16.9957 112.929 16.675C112.392 16.3543 111.971 15.9167 111.668 15.362C111.365 14.7987 111.213 14.1703 111.213 13.477C111.213 12.7837 111.36 12.1597 111.655 11.605C111.958 11.0503 112.366 10.617 112.877 10.305C113.397 9.993 113.978 9.837 114.619 9.837C115.286 9.837 115.867 9.993 116.361 10.305C116.864 10.617 117.245 11.033 117.505 11.553C117.774 12.0643 117.908 12.6147 117.908 13.204C117.908 13.4033 117.886 13.62 117.843 13.854H112.487C112.504 14.296 112.617 14.6817 112.825 15.011C113.033 15.3403 113.302 15.596 113.631 15.778C113.969 15.96 114.337 16.051 114.736 16.051C115.585 16.051 116.24 15.6653 116.699 14.894L117.713 15.414C117.488 15.9167 117.106 16.3327 116.569 16.662C116.032 16.9913 115.416 17.156 114.723 17.156ZM116.595 12.814C116.578 12.268 116.378 11.8173 115.997 11.462C115.624 11.098 115.165 10.916 114.619 10.916C114.082 10.916 113.618 11.0893 113.228 11.436C112.838 11.774 112.6 12.2333 112.513 12.814H116.595ZM122.331 17.078C121.647 17.078 121.118 16.8873 120.745 16.506C120.381 16.116 120.199 15.5613 120.199 14.842V11.15H118.925V9.993H119.185C119.497 9.993 119.744 9.902 119.926 9.72C120.108 9.52933 120.199 9.27367 120.199 8.953V8.381H121.408V9.993H122.981V11.15H121.408V14.803C121.408 15.583 121.798 15.973 122.578 15.973C122.743 15.973 122.903 15.96 123.059 15.934V17.013C122.877 17.0563 122.635 17.078 122.331 17.078Z" fill="white"/>
<path d="M52.9097 21.3601C51.1897 21.3601 49.8197 20.9401 48.7997 20.1001C47.7997 19.2601 47.2997 18.1201 47.2997 16.6801C47.2997 15.3001 47.7697 14.1601 48.7097 13.2601C49.6497 12.3601 51.0597 11.7601 52.9397 11.4601L57.7997 10.6801V10.1401C57.7997 9.42007 57.5197 8.83007 56.9597 8.37007C56.4197 7.91007 55.6997 7.68007 54.7997 7.68007C53.9597 7.68007 53.2097 7.91007 52.5497 8.37007C51.9097 8.81007 51.4397 9.40007 51.1397 10.1401L47.9297 8.58007C48.4097 7.30007 49.2897 6.27007 50.5697 5.49007C51.8497 4.71007 53.3097 4.32007 54.9497 4.32007C56.2697 4.32007 57.4397 4.57007 58.4597 5.07007C59.4997 5.55007 60.2997 6.24007 60.8597 7.14007C61.4397 8.02007 61.7297 9.02007 61.7297 10.1401V21.0001H58.0097V19.2601C56.7297 20.6601 55.0297 21.3601 52.9097 21.3601ZM51.3797 16.5301C51.3797 17.0901 51.5897 17.5401 52.0097 17.8801C52.4297 18.2001 52.9697 18.3601 53.6297 18.3601C54.8497 18.3601 55.8497 17.9801 56.6297 17.2201C57.4097 16.4401 57.7997 15.4801 57.7997 14.3401V13.6801L53.6897 14.3701C52.9097 14.5301 52.3297 14.7901 51.9497 15.1501C51.5697 15.4901 51.3797 15.9501 51.3797 16.5301Z" fill="black"/>
<path d="M30.6534 4.67993H34.9434L38.8134 15.3299L42.6834 4.67993H46.9734L40.5534 20.9999H37.0734L30.6534 4.67993Z" fill="black"/>
<path d="M21.456 21.3601C19.876 21.3601 18.426 20.9901 17.106 20.2501C15.786 19.5101 14.736 18.4901 13.956 17.1901C13.196 15.8901 12.816 14.4401 12.816 12.8401C12.816 11.2401 13.196 9.79007 13.956 8.49007C14.716 7.19007 15.756 6.17007 17.076 5.43007C18.396 4.69007 19.856 4.32007 21.456 4.32007C23.036 4.32007 24.476 4.69007 25.776 5.43007C27.096 6.17007 28.136 7.19007 28.896 8.49007C29.676 9.79007 30.066 11.2401 30.066 12.8401C30.066 14.4601 29.676 15.9201 28.896 17.2201C28.136 18.5201 27.096 19.5401 25.776 20.2801C24.456 21.0001 23.016 21.3601 21.456 21.3601ZM16.896 12.8401C16.896 14.2601 17.316 15.4401 18.156 16.3801C19.016 17.3001 20.116 17.7601 21.456 17.7601C22.316 17.7601 23.086 17.5501 23.766 17.1301C24.446 16.7101 24.976 16.1301 25.356 15.3901C25.756 14.6301 25.956 13.7801 25.956 12.8401C25.956 11.9201 25.756 11.0901 25.356 10.3501C24.976 9.59007 24.446 9.00007 23.766 8.58007C23.086 8.14007 22.316 7.92007 21.456 7.92007C20.576 7.92007 19.786 8.14007 19.086 8.58007C18.406 9.00007 17.866 9.58007 17.466 10.3201C17.086 11.0601 16.896 11.9001 16.896 12.8401Z" fill="black"/>
<path d="M9.27003 21.18C7.43003 21.18 6.00003 20.68 4.98003 19.68C3.98003 18.66 3.48003 17.23 3.48003 15.39V8.18996H0.660034V4.67996H0.960034C1.76003 4.67996 2.38003 4.46996 2.82003 4.04996C3.26003 3.62996 3.48003 3.01996 3.48003 2.21996V0.959961H7.41003V4.67996H11.16V8.18996H7.41003V15.18C7.41003 16.88 8.33003 17.73 10.17 17.73C10.49 17.73 10.84 17.7 11.22 17.64V21.03C10.58 21.13 9.93003 21.18 9.27003 21.18Z" fill="black"/>
</svg>
